# xmcd
#
# Track frame offsets:
#	150
#	16991
#	42585
#	69859
#	90321
#	121670
#	139876
#	179383
#	209815
#	247165
#
# Disc length: 3768 seconds
#
# Revision: 0
# Processed by: cddbd v1.5.2PL0 Copyright (c) Steve Scherf et al.
# Submitted via: EasyCDDAExtractor 9.0.0.1
#
DISCID=8c0eb60a
DTITLE=Black Sabbath - Le Colisee Colisuem Quebec City 18-11-81 Disc 1
DYEAR=1981
DGENRE=Hard Rock
TTITLE0=E5150
TTITLE1=Neon Knights
TTITLE2=NIB
TTITLE3=Country Girl
TTITLE4=Children Of The Sea
TTITLE5=Turn Up The Night
TTITLE6=Black Sabbath
TTITLE7=Voodoo
TTITLE8=War Pigs
TTITLE9=Iron Man
EXTD=
EXTT0=
EXTT1=
EXTT2=
EXTT3=
EXTT4=
EXTT5=
EXTT6=
EXTT7=
EXTT8=
EXTT9=
PLAYORDER=
